<svg version="1.1" xmlns="http://www.w3.org/2000/svg" viewBox="-245.75999755859374 -3186.176168823242 5642.24033203125 3510.7841888427733"><desc>Created with Snap</desc><defs></defs><g><g transform="matrix(37.344,0,0,37.344,1380.4082,-3177.728)"><title>cake-piece-topping-strawberry-cheese-dessert-birdthday</title><g data-name="Layer 14"><path d="M41,8a.988.988,0,0,0-.482.124l-40,22a.968.968,0,0,0-.147.115,1.118,1.118,0,0,0-.093.074,1,1,0,0,0-.2.294c-.005.012-.005.026-.01.039a1.011,1.011,0,0,0-.064.318c0,.013-.007.023-.007.036V55a1,1,0,0,0,1,1H63a1,1,0,0,0,1-1V31A23.026,23.026,0,0,0,41,8Zm.254,2A21.028,21.028,0,0,1,61.977,30H59.766a11.112,11.112,0,0,0-5.442-6.651,11.293,11.293,0,0,0-11.069-8.857c-.318,0-.644.016-.984.049l-.011-.022a9.569,9.569,0,0,0-2.58-3.652Zm10.79,16.7-1.466-.694-.239-1.554a7.151,7.151,0,0,0-7.084-5.963,7.97,7.97,0,0,0-1.083.091l-2.282.335-1.005-2a7.283,7.283,0,0,0-3.837-3.329l2.942-1.471c1.224.722,1.759,1.815,2.473,3.274l.333.674a1,1,0,0,0,1.047.539,9.125,9.125,0,0,1,1.412-.118,9.257,9.257,0,0,1,9.185,7.676,1,1,0,0,0,.56.752A9.171,9.171,0,0,1,57.678,30H55.41A7.029,7.029,0,0,0,52.044,26.705ZM32.148,15.01A5.839,5.839,0,0,1,37.1,17.822l1.328,2.642a1,1,0,0,0,1.039.54l2.984-.439a6.164,6.164,0,0,1,.8-.071,5.138,5.138,0,0,1,5.107,4.265l.32,2.081a1,1,0,0,0,.56.752l1.947.921A5.137,5.137,0,0,1,53.038,30H4.894ZM2,44H58v2H2Zm56-2H2V36H58ZM2,54V48H58v6Zm60,0H60V35a1,1,0,0,0-1-1H2V32H62Z" fill="#fc766a" style=""></path><path d="M36,20.142V18a1,1,0,0,0-2,0v2.142a4,4,0,1,0,2,0ZM35,26a1.994,1.994,0,0,1-1-3.722V23a1,1,0,0,0,2,0v-.722A1.994,1.994,0,0,1,35,26Z" fill="#fc766a" style=""></path></g><desc>Created with Snap</desc><defs></defs></g><g><g transform="matrix(1.024,0,0,-1.024,0,0)"><path d="M160 279Q160 247 160 222Q160 198 159 176Q159 154 158 132Q157 110 156 83Q225 91 264 96Q303 101 325 104Q348 107 360 108Q373 109 390 109Q434 109 434 66Q434 49 416 37Q399 25 372 16Q346 8 313 2Q281 -3 250 -6Q220 -8 195 -9Q171 -10 161 -10Q125 -10 105 -6Q85 -1 75 21Q65 44 62 90Q60 136 60 220Q60 301 60 364Q60 427 61 477Q62 527 62 566Q63 605 65 637Q67 678 79 690Q91 703 109 703Q119 703 126 701Q134 700 140 693Q146 686 149 673Q153 660 154 636Q158 548 159 462Q160 376 160 279ZM925 -4Q909 -4 899 1Q890 7 885 16Q880 25 878 37Q876 50 875 64Q850 33 810 12Q771 -9 710 -9Q671 -9 630 2Q590 14 557 42Q524 71 503 119Q482 167 482 240Q482 297 496 347Q510 397 538 434Q567 472 610 494Q653 516 711 516Q762 516 802 497Q842 479 874 437Q874 449 875 461Q876 474 880 484Q885 495 895 501Q905 508 922 508Q937 508 950 496Q963 484 965 444Q968 391 969 349Q971 307 971 262Q971 207 970 161Q969 115 965 63Q963 40 959 26Q956 13 951 6Q946 0 939 -2Q932 -4 925 -4ZM871 250Q871 302 855 335Q840 368 816 386Q793 405 766 412Q739 419 716 419Q680 419 654 406Q629 393 613 370Q597 348 589 317Q582 287 582 251Q582 163 620 121Q659 79 725 79Q764 79 791 92Q819 106 836 129Q854 152 862 183Q871 215 871 250ZM1264 522Q1285 522 1317 518Q1349 515 1378 505Q1407 496 1428 479Q1449 462 1449 436Q1449 421 1440 410Q1432 399 1414 399Q1401 399 1384 403Q1368 407 1348 412Q1329 418 1306 422Q1284 426 1259 426Q1217 426 1190 413Q1164 400 1164 372Q1164 356 1173 345Q1183 334 1199 325Q1216 317 1238 311Q1261 305 1286 299Q1317 291 1347 281Q1378 271 1402 253Q1426 236 1441 209Q1456 183 1456 144Q1456 70 1400 26Q1344 -17 1235 -17Q1211 -17 1178 -14Q1145 -10 1116 -1Q1087 9 1066 26Q1046 44 1046 73Q1046 93 1055 103Q1065 114 1079 114Q1090 114 1102 107Q1114 100 1131 92Q1148 84 1172 77Q1196 70 1231 70Q1244 70 1265 71Q1286 73 1306 80Q1327 87 1341 99Q1356 112 1356 135Q1356 153 1346 165Q1336 178 1319 187Q1302 196 1279 202Q1257 209 1232 216Q1203 224 1173 234Q1144 244 1120 260Q1096 276 1081 300Q1066 325 1066 361Q1066 395 1080 424Q1094 454 1120 476Q1146 498 1182 510Q1219 522 1264 522ZM2174 2Q2154 2 2140 18Q2127 34 2122 55Q2110 44 2094 33Q2079 22 2059 12Q2039 3 2015 -3Q1991 -9 1963 -9Q1929 -9 1887 2Q1846 14 1809 42Q1773 71 1748 120Q1724 169 1724 243Q1724 306 1743 355Q1762 404 1796 437Q1831 471 1878 488Q1926 506 1982 506Q2030 506 2058 495Q2086 484 2102 469Q2102 496 2102 530Q2102 565 2102 597Q2103 630 2103 657Q2104 684 2105 698Q2107 732 2117 744Q2127 757 2152 757Q2178 757 2187 744Q2197 732 2199 701Q2200 688 2200 666Q2201 644 2201 618Q2201 592 2201 565Q2202 539 2202 517Q2202 496 2202 482Q2202 468 2202 468Q2202 366 2200 280Q2199 194 2199 143Q2201 132 2207 122Q2214 112 2221 102Q2229 92 2235 81Q2241 70 2241 58Q2241 44 2234 33Q2227 23 2216 16Q2206 9 2194 5Q2183 2 2174 2ZM1981 90Q2043 90 2076 127Q2109 164 2109 249Q2109 412 1980 412Q1950 412 1922 403Q1894 394 1872 375Q1851 356 1837 327Q1824 298 1824 258Q1824 225 1833 195Q1843 165 1862 141Q1882 118 1911 104Q1941 90 1981 90ZM2552 184Q2517 184 2478 189Q2440 195 2395 213Q2404 152 2445 121Q2487 90 2565 90Q2593 90 2615 93Q2638 97 2655 101Q2672 106 2685 109Q2698 113 2709 113Q2723 113 2736 104Q2749 96 2749 76Q2749 51 2728 35Q2708 19 2678 9Q2649 0 2616 -4Q2583 -7 2558 -7Q2499 -7 2449 9Q2400 25 2364 57Q2328 90 2308 138Q2288 186 2288 250Q2288 312 2307 360Q2327 408 2361 441Q2395 474 2441 491Q2488 508 2542 508Q2584 508 2623 497Q2663 486 2693 464Q2724 442 2742 408Q2761 375 2761 330Q2761 290 2746 262Q2731 234 2703 217Q2676 200 2637 192Q2599 184 2552 184ZM2545 416Q2518 416 2493 409Q2468 403 2447 388Q2427 374 2413 350Q2399 327 2394 292Q2432 275 2468 268Q2504 262 2544 262Q2603 262 2631 276Q2660 291 2660 329Q2660 364 2633 390Q2607 416 2545 416ZM2862 58Q2861 94 2860 142Q2859 190 2858 246Q2858 302 2857 364Q2857 426 2857 491Q2857 562 2858 613Q2859 664 2863 697Q2868 730 2878 745Q2888 761 2906 761Q2923 761 2936 750Q2949 739 2951 699Q2955 627 2956 549Q2957 472 2957 397Q2957 352 2957 310Q2957 269 2956 228Q2955 188 2954 146Q2953 104 2951 59Q2950 35 2946 22Q2943 9 2937 2Q2931 -5 2923 -7Q2916 -8 2906 -8Q2888 -8 2876 4Q2864 17 2862 58ZM3087 62Q3085 99 3083 146Q3082 194 3082 251Q3082 322 3083 372Q3084 423 3088 455Q3093 488 3103 503Q3113 519 3131 519Q3148 519 3161 507Q3174 495 3176 455Q3182 350 3182 252Q3182 202 3180 158Q3178 115 3176 63Q3175 39 3171 26Q3168 13 3162 6Q3156 -1 3148 -3Q3141 -4 3131 -4Q3113 -4 3101 8Q3089 21 3087 62ZM3132 700Q3155 700 3174 682Q3194 664 3194 639Q3194 615 3174 597Q3154 580 3129 580Q3108 580 3089 597Q3071 615 3071 641Q3071 665 3089 682Q3108 700 3132 700ZM3534 510Q3563 510 3592 505Q3622 500 3646 491Q3670 482 3685 469Q3700 456 3700 439Q3700 395 3650 395Q3638 395 3627 398Q3617 402 3603 405Q3589 409 3568 412Q3547 416 3516 416Q3450 416 3414 371Q3378 326 3378 254Q3378 175 3414 127Q3451 79 3518 79Q3560 79 3586 86Q3612 93 3628 102Q3645 111 3655 118Q3666 125 3679 125Q3697 125 3707 117Q3718 110 3718 87Q3718 63 3699 45Q3681 27 3653 15Q3625 3 3592 -3Q3560 -9 3533 -9Q3412 -9 3343 58Q3274 125 3274 248Q3274 301 3290 348Q3307 396 3340 432Q3373 468 3421 489Q3470 510 3534 510ZM3810 62Q3808 99 3806 146Q3805 194 3805 251Q3805 322 3806 372Q3807 423 3811 455Q3816 488 3826 503Q3836 519 3854 519Q3871 519 3884 507Q3897 495 3899 455Q3905 350 3905 252Q3905 202 3903 158Q3901 115 3899 63Q3898 39 3894 26Q3891 13 3885 6Q3879 -1 3871 -3Q3864 -4 3854 -4Q3836 -4 3824 8Q3812 21 3810 62ZM3855 700Q3878 700 3897 682Q3917 664 3917 639Q3917 615 3897 597Q3877 580 3852 580Q3831 580 3812 597Q3794 615 3794 641Q3794 665 3812 682Q3831 700 3855 700ZM4439 -4Q4423 -4 4413 1Q4404 7 4399 16Q4394 25 4392 37Q4390 50 4389 64Q4364 33 4324 12Q4285 -9 4224 -9Q4185 -9 4144 2Q4104 14 4071 42Q4038 71 4017 119Q3996 167 3996 240Q3996 297 4010 347Q4024 397 4052 434Q4081 472 4124 494Q4167 516 4225 516Q4276 516 4316 497Q4356 479 4388 437Q4388 449 4389 461Q4390 474 4394 484Q4399 495 4409 501Q4419 508 4436 508Q4451 508 4464 496Q4477 484 4479 444Q4482 391 4483 349Q4485 307 4485 262Q4485 207 4484 161Q4483 115 4479 63Q4477 40 4473 26Q4470 13 4465 6Q4460 0 4453 -2Q4446 -4 4439 -4ZM4385 250Q4385 302 4369 335Q4354 368 4330 386Q4307 405 4280 412Q4253 419 4230 419Q4194 419 4168 406Q4143 393 4127 370Q4111 348 4103 317Q4096 287 4096 251Q4096 163 4134 121Q4173 79 4239 79Q4278 79 4305 92Q4333 106 4350 129Q4368 152 4376 183Q4385 215 4385 250ZM4778 522Q4799 522 4831 518Q4863 515 4892 505Q4921 496 4942 479Q4963 462 4963 436Q4963 421 4954 410Q4946 399 4928 399Q4915 399 4898 403Q4882 407 4862 412Q4843 418 4820 422Q4798 426 4773 426Q4731 426 4704 413Q4678 400 4678 372Q4678 356 4687 345Q4697 334 4713 325Q4730 317 4752 311Q4775 305 4800 299Q4831 291 4861 281Q4892 271 4916 253Q4940 236 4955 209Q4970 183 4970 144Q4970 70 4914 26Q4858 -17 4749 -17Q4725 -17 4692 -14Q4659 -10 4630 -1Q4601 9 4580 26Q4560 44 4560 73Q4560 93 4569 103Q4579 114 4593 114Q4604 114 4616 107Q4628 100 4645 92Q4662 84 4686 77Q4710 70 4745 70Q4758 70 4779 71Q4800 73 4820 80Q4841 87 4855 99Q4870 112 4870 135Q4870 153 4860 165Q4850 178 4833 187Q4816 196 4793 202Q4771 209 4746 216Q4717 224 4687 234Q4658 244 4634 260Q4610 276 4595 300Q4580 325 4580 361Q4580 395 4594 424Q4608 454 4634 476Q4660 498 4696 510Q4733 522 4778 522Z" fill="#5b84b1" style=""></path></g></g></g></svg>